<?xml version="1.0" encoding="UTF-8" standalone="no"?>
<!DOCTYPE svg PUBLIC "-//W3C//DTD SVG 1.1//EN"
 "http://www.w3.org/Graphics/SVG/1.1/DTD/svg11.dtd">
<!-- Generated by graphviz version 2.47.3 (20210619.1520)
 -->
<!-- Title: dependencies Pages: 1 -->
<svg width="4024pt" height="247pt"
 viewBox="0.00 0.00 4024.00 246.80" xmlns="http://www.w3.org/2000/svg" xmlns:xlink="http://www.w3.org/1999/xlink">
<g id="graph0" class="graph" transform="scale(1 1) rotate(0) translate(4 242.8)">
<title>dependencies</title>
<polygon fill="white" stroke="transparent" points="-4,4 -4,-242.8 4020,-242.8 4020,4 -4,4"/>
<text text-anchor="middle" x="2008" y="-8.2" font-family="sans-serif" font-size="14.00">dependencies</text>
<g id="clust1" class="cluster">
<title>cluster_AppModule</title>
<polygon fill="none" stroke="black" stroke-dasharray="1,5" points="8,-32.8 8,-230.8 4008,-230.8 4008,-32.8 8,-32.8"/>
</g>
<g id="clust2" class="cluster">
<title>cluster_AppModule_declarations</title>
<polygon fill="none" stroke="black" points="416,-40.8 416,-92.8 4000,-92.8 4000,-40.8 416,-40.8"/>
</g>
<g id="clust26" class="cluster">
<title>cluster_AppModule_imports</title>
<polygon fill="none" stroke="black" points="264,-40.8 264,-92.8 408,-92.8 408,-40.8 264,-40.8"/>
</g>
<g id="clust28" class="cluster">
<title>cluster_AppModule_bootstrap</title>
<polygon fill="none" stroke="black" points="1918,-170.8 1918,-222.8 2042,-222.8 2042,-170.8 1918,-170.8"/>
</g>
<g id="clust29" class="cluster">
<title>cluster_AppModule_providers</title>
<polygon fill="none" stroke="black" points="16,-40.8 16,-92.8 256,-92.8 256,-40.8 16,-40.8"/>
</g>
<!-- AccountComponent -->
<g id="node1" class="node">
<title>AccountComponent</title>
<polygon fill="#ffffb3" stroke="black" points="3992.26,-84.8 3863.74,-84.8 3863.74,-48.8 3992.26,-48.8 3992.26,-84.8"/>
<text text-anchor="middle" x="3928" y="-62.6" font-family="Times,serif" font-size="14.00">AccountComponent</text>
</g>
<!-- AppModule -->
<g id="node24" class="node">
<title>AppModule</title>
<polygon fill="#8dd3c7" stroke="black" points="2021.66,-149.8 2018.66,-153.8 1997.66,-153.8 1994.66,-149.8 1938.34,-149.8 1938.34,-113.8 2021.66,-113.8 2021.66,-149.8"/>
<text text-anchor="middle" x="1980" y="-127.6" font-family="Times,serif" font-size="14.00">AppModule</text>
</g>
<!-- AccountComponent&#45;&gt;AppModule -->
<g id="edge1" class="edge">
<title>AccountComponent&#45;&gt;AppModule</title>
<path fill="none" stroke="black" d="M3928,-85.18C3928,-109.08 3928,-147.8 3928,-147.8 3928,-147.8 2032.04,-147.8 2032.04,-147.8"/>
<polygon fill="black" stroke="black" points="2032.04,-144.3 2022.04,-147.8 2032.04,-151.3 2032.04,-144.3"/>
</g>
<!-- AccountLevelPipe -->
<g id="node2" class="node">
<title>AccountLevelPipe</title>
<polygon fill="#ffffb3" stroke="black" points="3846.19,-84.8 3725.81,-84.8 3725.81,-48.8 3846.19,-48.8 3846.19,-84.8"/>
<text text-anchor="middle" x="3786" y="-62.6" font-family="Times,serif" font-size="14.00">AccountLevelPipe</text>
</g>
<!-- AccountLevelPipe&#45;&gt;AppModule -->
<g id="edge2" class="edge">
<title>AccountLevelPipe&#45;&gt;AppModule</title>
<path fill="none" stroke="black" d="M3786,-84.89C3786,-107.93 3786,-144.8 3786,-144.8 3786,-144.8 2031.98,-144.8 2031.98,-144.8"/>
<polygon fill="black" stroke="black" points="2031.98,-141.3 2021.98,-144.8 2031.98,-148.3 2031.98,-141.3"/>
</g>
<!-- AddAnswerDialogComponent -->
<g id="node3" class="node">
<title>AddAnswerDialogComponent</title>
<polygon fill="#ffffb3" stroke="black" points="3707.57,-84.8 3520.43,-84.8 3520.43,-48.8 3707.57,-48.8 3707.57,-84.8"/>
<text text-anchor="middle" x="3614" y="-62.6" font-family="Times,serif" font-size="14.00">AddAnswerDialogComponent</text>
</g>
<!-- AddAnswerDialogComponent&#45;&gt;AppModule -->
<g id="edge3" class="edge">
<title>AddAnswerDialogComponent&#45;&gt;AppModule</title>
<path fill="none" stroke="black" d="M3614,-84.96C3614,-107.15 3614,-141.8 3614,-141.8 3614,-141.8 2032.03,-141.8 2032.03,-141.8"/>
<polygon fill="black" stroke="black" points="2032.03,-138.3 2022.03,-141.8 2032.03,-145.3 2032.03,-138.3"/>
</g>
<!-- AddQuestionDialogComponent -->
<g id="node4" class="node">
<title>AddQuestionDialogComponent</title>
<polygon fill="#ffffb3" stroke="black" points="3502.09,-84.8 3307.91,-84.8 3307.91,-48.8 3502.09,-48.8 3502.09,-84.8"/>
<text text-anchor="middle" x="3405" y="-62.6" font-family="Times,serif" font-size="14.00">AddQuestionDialogComponent</text>
</g>
<!-- AddQuestionDialogComponent&#45;&gt;AppModule -->
<g id="edge4" class="edge">
<title>AddQuestionDialogComponent&#45;&gt;AppModule</title>
<path fill="none" stroke="black" d="M3405,-84.97C3405,-106.3 3405,-138.8 3405,-138.8 3405,-138.8 2031.88,-138.8 2031.88,-138.8"/>
<polygon fill="black" stroke="black" points="2031.88,-135.3 2021.88,-138.8 2031.88,-142.3 2031.88,-135.3"/>
</g>
<!-- AdminComponent -->
<g id="node5" class="node">
<title>AdminComponent</title>
<polygon fill="#ffffb3" stroke="black" points="3290.22,-84.8 3169.78,-84.8 3169.78,-48.8 3290.22,-48.8 3290.22,-84.8"/>
<text text-anchor="middle" x="3230" y="-62.6" font-family="Times,serif" font-size="14.00">AdminComponent</text>
</g>
<!-- AdminComponent&#45;&gt;AppModule -->
<g id="edge5" class="edge">
<title>AdminComponent&#45;&gt;AppModule</title>
<path fill="none" stroke="black" d="M3230,-84.83C3230,-105.57 3230,-136.8 3230,-136.8 3230,-136.8 2031.95,-136.8 2031.95,-136.8"/>
<polygon fill="black" stroke="black" points="2031.95,-133.3 2021.95,-136.8 2031.95,-140.3 2031.95,-133.3"/>
</g>
<!-- AppComponent -->
<g id="node6" class="node">
<title>AppComponent</title>
<polygon fill="#ffffb3" stroke="black" points="3151.94,-84.8 3046.06,-84.8 3046.06,-48.8 3151.94,-48.8 3151.94,-84.8"/>
<text text-anchor="middle" x="3099" y="-62.6" font-family="Times,serif" font-size="14.00">AppComponent</text>
</g>
<!-- AppComponent&#45;&gt;AppModule -->
<g id="edge6" class="edge">
<title>AppComponent&#45;&gt;AppModule</title>
<path fill="none" stroke="black" d="M3099,-85.11C3099,-104.95 3099,-133.8 3099,-133.8 3099,-133.8 2031.82,-133.8 2031.82,-133.8"/>
<polygon fill="black" stroke="black" points="2031.82,-130.3 2021.82,-133.8 2031.82,-137.3 2031.82,-130.3"/>
</g>
<!-- AuthComponent -->
<g id="node7" class="node">
<title>AuthComponent</title>
<polygon fill="#ffffb3" stroke="black" points="3028.83,-84.8 2919.17,-84.8 2919.17,-48.8 3028.83,-48.8 3028.83,-84.8"/>
<text text-anchor="middle" x="2974" y="-62.6" font-family="Times,serif" font-size="14.00">AuthComponent</text>
</g>
<!-- AuthComponent&#45;&gt;AppModule -->
<g id="edge7" class="edge">
<title>AuthComponent&#45;&gt;AppModule</title>
<path fill="none" stroke="black" d="M2974,-84.97C2974,-103.89 2974,-130.8 2974,-130.8 2974,-130.8 2031.76,-130.8 2031.76,-130.8"/>
<polygon fill="black" stroke="black" points="2031.76,-127.3 2021.76,-130.8 2031.76,-134.3 2031.76,-127.3"/>
</g>
<!-- AutofocusDirective -->
<g id="node8" class="node">
<title>AutofocusDirective</title>
<polygon fill="#ffffb3" stroke="black" points="2901.4,-84.8 2774.6,-84.8 2774.6,-48.8 2901.4,-48.8 2901.4,-84.8"/>
<text text-anchor="middle" x="2838" y="-62.6" font-family="Times,serif" font-size="14.00">AutofocusDirective</text>
</g>
<!-- AutofocusDirective&#45;&gt;AppModule -->
<g id="edge8" class="edge">
<title>AutofocusDirective&#45;&gt;AppModule</title>
<path fill="none" stroke="black" d="M2838,-85.1C2838,-103.07 2838,-127.8 2838,-127.8 2838,-127.8 2031.67,-127.8 2031.67,-127.8"/>
<polygon fill="black" stroke="black" points="2031.67,-124.3 2021.67,-127.8 2031.67,-131.3 2031.67,-124.3"/>
</g>
<!-- CategoryDialogComponent -->
<g id="node9" class="node">
<title>CategoryDialogComponent</title>
<polygon fill="#ffffb3" stroke="black" points="2756.25,-84.8 2585.75,-84.8 2585.75,-48.8 2756.25,-48.8 2756.25,-84.8"/>
<text text-anchor="middle" x="2671" y="-62.6" font-family="Times,serif" font-size="14.00">CategoryDialogComponent</text>
</g>
<!-- CategoryDialogComponent&#45;&gt;AppModule -->
<g id="edge9" class="edge">
<title>CategoryDialogComponent&#45;&gt;AppModule</title>
<path fill="none" stroke="black" d="M2671,-84.82C2671,-102.17 2671,-125.8 2671,-125.8 2671,-125.8 2031.67,-125.8 2031.67,-125.8"/>
<polygon fill="black" stroke="black" points="2031.67,-122.3 2021.67,-125.8 2031.67,-129.3 2031.67,-122.3"/>
</g>
<!-- CourseDialogComponent -->
<g id="node10" class="node">
<title>CourseDialogComponent</title>
<polygon fill="#ffffb3" stroke="black" points="2567.59,-84.8 2408.41,-84.8 2408.41,-48.8 2567.59,-48.8 2567.59,-84.8"/>
<text text-anchor="middle" x="2488" y="-62.6" font-family="Times,serif" font-size="14.00">CourseDialogComponent</text>
</g>
<!-- CourseDialogComponent&#45;&gt;AppModule -->
<g id="edge10" class="edge">
<title>CourseDialogComponent&#45;&gt;AppModule</title>
<path fill="none" stroke="black" d="M2488,-84.83C2488,-101.2 2488,-122.8 2488,-122.8 2488,-122.8 2032,-122.8 2032,-122.8"/>
<polygon fill="black" stroke="black" points="2032,-119.3 2022,-122.8 2032,-126.3 2032,-119.3"/>
</g>
<!-- DialogComponent -->
<g id="node11" class="node">
<title>DialogComponent</title>
<polygon fill="#ffffb3" stroke="black" points="2390.94,-84.8 2271.06,-84.8 2271.06,-48.8 2390.94,-48.8 2390.94,-84.8"/>
<text text-anchor="middle" x="2331" y="-62.6" font-family="Times,serif" font-size="14.00">DialogComponent</text>
</g>
<!-- DialogComponent&#45;&gt;AppModule -->
<g id="edge11" class="edge">
<title>DialogComponent&#45;&gt;AppModule</title>
<path fill="none" stroke="black" d="M2331,-85.04C2331,-100.37 2331,-119.8 2331,-119.8 2331,-119.8 2031.99,-119.8 2031.99,-119.8"/>
<polygon fill="black" stroke="black" points="2031.99,-116.3 2021.99,-119.8 2031.99,-123.3 2031.99,-116.3"/>
</g>
<!-- EditAnswerDialogComponent -->
<g id="node12" class="node">
<title>EditAnswerDialogComponent</title>
<polygon fill="#ffffb3" stroke="black" points="2253.3,-84.8 2066.7,-84.8 2066.7,-48.8 2253.3,-48.8 2253.3,-84.8"/>
<text text-anchor="middle" x="2160" y="-62.6" font-family="Times,serif" font-size="14.00">EditAnswerDialogComponent</text>
</g>
<!-- EditAnswerDialogComponent&#45;&gt;AppModule -->
<g id="edge12" class="edge">
<title>EditAnswerDialogComponent&#45;&gt;AppModule</title>
<path fill="none" stroke="black" d="M2160,-84.85C2160,-99.17 2160,-116.8 2160,-116.8 2160,-116.8 2031.75,-116.8 2031.75,-116.8"/>
<polygon fill="black" stroke="black" points="2031.75,-113.3 2021.75,-116.8 2031.75,-120.3 2031.75,-113.3"/>
</g>
<!-- ErrorPageComponent -->
<g id="node13" class="node">
<title>ErrorPageComponent</title>
<polygon fill="#ffffb3" stroke="black" points="2049.08,-84.8 1910.92,-84.8 1910.92,-48.8 2049.08,-48.8 2049.08,-84.8"/>
<text text-anchor="middle" x="1980" y="-62.6" font-family="Times,serif" font-size="14.00">ErrorPageComponent</text>
</g>
<!-- ErrorPageComponent&#45;&gt;AppModule -->
<g id="edge13" class="edge">
<title>ErrorPageComponent&#45;&gt;AppModule</title>
<path fill="none" stroke="black" d="M1980,-84.91C1980,-84.91 1980,-103.79 1980,-103.79"/>
<polygon fill="black" stroke="black" points="1976.5,-103.79 1980,-113.79 1983.5,-103.79 1976.5,-103.79"/>
</g>
<!-- FaqComponent -->
<g id="node14" class="node">
<title>FaqComponent</title>
<polygon fill="#ffffb3" stroke="black" points="1893.33,-84.8 1790.67,-84.8 1790.67,-48.8 1893.33,-48.8 1893.33,-84.8"/>
<text text-anchor="middle" x="1842" y="-62.6" font-family="Times,serif" font-size="14.00">FaqComponent</text>
</g>
<!-- FaqComponent&#45;&gt;AppModule -->
<g id="edge14" class="edge">
<title>FaqComponent&#45;&gt;AppModule</title>
<path fill="none" stroke="black" d="M1842,-84.85C1842,-99.17 1842,-116.8 1842,-116.8 1842,-116.8 1928.22,-116.8 1928.22,-116.8"/>
<polygon fill="black" stroke="black" points="1928.22,-120.3 1938.22,-116.8 1928.22,-113.3 1928.22,-120.3"/>
</g>
<!-- GameComponent -->
<g id="node15" class="node">
<title>GameComponent</title>
<polygon fill="#ffffb3" stroke="black" points="1772.26,-84.8 1657.74,-84.8 1657.74,-48.8 1772.26,-48.8 1772.26,-84.8"/>
<text text-anchor="middle" x="1715" y="-62.6" font-family="Times,serif" font-size="14.00">GameComponent</text>
</g>
<!-- GameComponent&#45;&gt;AppModule -->
<g id="edge15" class="edge">
<title>GameComponent&#45;&gt;AppModule</title>
<path fill="none" stroke="black" d="M1715,-85.04C1715,-100.37 1715,-119.8 1715,-119.8 1715,-119.8 1928.3,-119.8 1928.3,-119.8"/>
<polygon fill="black" stroke="black" points="1928.3,-123.3 1938.3,-119.8 1928.3,-116.3 1928.3,-123.3"/>
</g>
<!-- HeaderComponent -->
<g id="node16" class="node">
<title>HeaderComponent</title>
<polygon fill="#ffffb3" stroke="black" points="1639.74,-84.8 1518.26,-84.8 1518.26,-48.8 1639.74,-48.8 1639.74,-84.8"/>
<text text-anchor="middle" x="1579" y="-62.6" font-family="Times,serif" font-size="14.00">HeaderComponent</text>
</g>
<!-- HeaderComponent&#45;&gt;AppModule -->
<g id="edge16" class="edge">
<title>HeaderComponent&#45;&gt;AppModule</title>
<path fill="none" stroke="black" d="M1579,-84.83C1579,-101.2 1579,-122.8 1579,-122.8 1579,-122.8 1928.22,-122.8 1928.22,-122.8"/>
<polygon fill="black" stroke="black" points="1928.22,-126.3 1938.22,-122.8 1928.22,-119.3 1928.22,-126.3"/>
</g>
<!-- HomeComponent -->
<g id="node17" class="node">
<title>HomeComponent</title>
<polygon fill="#ffffb3" stroke="black" points="1499.55,-84.8 1384.45,-84.8 1384.45,-48.8 1499.55,-48.8 1499.55,-84.8"/>
<text text-anchor="middle" x="1442" y="-62.6" font-family="Times,serif" font-size="14.00">HomeComponent</text>
</g>
<!-- HomeComponent&#45;&gt;AppModule -->
<g id="edge17" class="edge">
<title>HomeComponent&#45;&gt;AppModule</title>
<path fill="none" stroke="black" d="M1442,-84.82C1442,-102.17 1442,-125.8 1442,-125.8 1442,-125.8 1928.23,-125.8 1928.23,-125.8"/>
<polygon fill="black" stroke="black" points="1928.23,-129.3 1938.23,-125.8 1928.23,-122.3 1928.23,-129.3"/>
</g>
<!-- LoadingScreenComponent -->
<g id="node18" class="node">
<title>LoadingScreenComponent</title>
<polygon fill="#ffffb3" stroke="black" points="1366.08,-84.8 1199.92,-84.8 1199.92,-48.8 1366.08,-48.8 1366.08,-84.8"/>
<text text-anchor="middle" x="1283" y="-62.6" font-family="Times,serif" font-size="14.00">LoadingScreenComponent</text>
</g>
<!-- LoadingScreenComponent&#45;&gt;AppModule -->
<g id="edge18" class="edge">
<title>LoadingScreenComponent&#45;&gt;AppModule</title>
<path fill="none" stroke="black" d="M1283,-85.1C1283,-103.07 1283,-127.8 1283,-127.8 1283,-127.8 1928.23,-127.8 1928.23,-127.8"/>
<polygon fill="black" stroke="black" points="1928.23,-131.3 1938.23,-127.8 1928.23,-124.3 1928.23,-131.3"/>
</g>
<!-- LobbyComponent -->
<g id="node19" class="node">
<title>LobbyComponent</title>
<polygon fill="#ffffb3" stroke="black" points="1181.89,-84.8 1064.11,-84.8 1064.11,-48.8 1181.89,-48.8 1181.89,-84.8"/>
<text text-anchor="middle" x="1123" y="-62.6" font-family="Times,serif" font-size="14.00">LobbyComponent</text>
</g>
<!-- LobbyComponent&#45;&gt;AppModule -->
<g id="edge19" class="edge">
<title>LobbyComponent&#45;&gt;AppModule</title>
<path fill="none" stroke="black" d="M1123,-84.97C1123,-103.89 1123,-130.8 1123,-130.8 1123,-130.8 1928.08,-130.8 1928.08,-130.8"/>
<polygon fill="black" stroke="black" points="1928.09,-134.3 1938.08,-130.8 1928.08,-127.3 1928.09,-134.3"/>
</g>
<!-- QuestionDialogComponent -->
<g id="node20" class="node">
<title>QuestionDialogComponent</title>
<polygon fill="#ffffb3" stroke="black" points="1045.98,-84.8 876.02,-84.8 876.02,-48.8 1045.98,-48.8 1045.98,-84.8"/>
<text text-anchor="middle" x="961" y="-62.6" font-family="Times,serif" font-size="14.00">QuestionDialogComponent</text>
</g>
<!-- QuestionDialogComponent&#45;&gt;AppModule -->
<g id="edge20" class="edge">
<title>QuestionDialogComponent&#45;&gt;AppModule</title>
<path fill="none" stroke="black" d="M961,-85.11C961,-104.95 961,-133.8 961,-133.8 961,-133.8 1928.15,-133.8 1928.15,-133.8"/>
<polygon fill="black" stroke="black" points="1928.15,-137.3 1938.15,-133.8 1928.15,-130.3 1928.15,-137.3"/>
</g>
<!-- QuestionsComponent -->
<g id="node21" class="node">
<title>QuestionsComponent</title>
<polygon fill="#ffffb3" stroke="black" points="857.82,-84.8 720.18,-84.8 720.18,-48.8 857.82,-48.8 857.82,-84.8"/>
<text text-anchor="middle" x="789" y="-62.6" font-family="Times,serif" font-size="14.00">QuestionsComponent</text>
</g>
<!-- QuestionsComponent&#45;&gt;AppModule -->
<g id="edge21" class="edge">
<title>QuestionsComponent&#45;&gt;AppModule</title>
<path fill="none" stroke="black" d="M789,-84.83C789,-105.57 789,-136.8 789,-136.8 789,-136.8 1928.31,-136.8 1928.31,-136.8"/>
<polygon fill="black" stroke="black" points="1928.31,-140.3 1938.31,-136.8 1928.31,-133.3 1928.31,-140.3"/>
</g>
<!-- RankingComponent -->
<g id="node22" class="node">
<title>RankingComponent</title>
<polygon fill="#ffffb3" stroke="black" points="702.27,-84.8 573.73,-84.8 573.73,-48.8 702.27,-48.8 702.27,-84.8"/>
<text text-anchor="middle" x="638" y="-62.6" font-family="Times,serif" font-size="14.00">RankingComponent</text>
</g>
<!-- RankingComponent&#45;&gt;AppModule -->
<g id="edge22" class="edge">
<title>RankingComponent&#45;&gt;AppModule</title>
<path fill="none" stroke="black" d="M638,-84.97C638,-106.3 638,-138.8 638,-138.8 638,-138.8 1927.99,-138.8 1927.99,-138.8"/>
<polygon fill="black" stroke="black" points="1927.99,-142.3 1937.99,-138.8 1927.99,-135.3 1927.99,-142.3"/>
</g>
<!-- UserEditComponent -->
<g id="node23" class="node">
<title>UserEditComponent</title>
<polygon fill="#ffffb3" stroke="black" points="555.59,-84.8 424.41,-84.8 424.41,-48.8 555.59,-48.8 555.59,-84.8"/>
<text text-anchor="middle" x="490" y="-62.6" font-family="Times,serif" font-size="14.00">UserEditComponent</text>
</g>
<!-- UserEditComponent&#45;&gt;AppModule -->
<g id="edge23" class="edge">
<title>UserEditComponent&#45;&gt;AppModule</title>
<path fill="none" stroke="black" d="M490,-84.96C490,-107.15 490,-141.8 490,-141.8 490,-141.8 1928.2,-141.8 1928.2,-141.8"/>
<polygon fill="black" stroke="black" points="1928.2,-145.3 1938.2,-141.8 1928.2,-138.3 1928.2,-145.3"/>
</g>
<!-- AppComponent  -->
<g id="node26" class="node">
<title>AppComponent </title>
<polygon fill="#80b1d3" stroke="black" points="2034.44,-214.8 1925.56,-214.8 1925.56,-178.8 2034.44,-178.8 2034.44,-214.8"/>
<text text-anchor="middle" x="1980" y="-192.6" font-family="Times,serif" font-size="14.00">AppComponent </text>
</g>
<!-- AppModule&#45;&gt;AppComponent  -->
<g id="edge25" class="edge">
<title>AppModule&#45;&gt;AppComponent </title>
<path fill="none" stroke="black" stroke-dasharray="1,5" d="M1980,-149.91C1980,-149.91 1980,-168.79 1980,-168.79"/>
<polygon fill="black" stroke="black" points="1976.5,-168.79 1980,-178.79 1983.5,-168.79 1976.5,-168.79"/>
</g>
<!-- AppRoutingModule -->
<g id="node25" class="node">
<title>AppRoutingModule</title>
<polygon fill="#8dd3c7" stroke="black" points="400.27,-84.8 397.27,-88.8 376.27,-88.8 373.27,-84.8 271.73,-84.8 271.73,-48.8 400.27,-48.8 400.27,-84.8"/>
<text text-anchor="middle" x="336" y="-62.6" font-family="Times,serif" font-size="14.00">AppRoutingModule</text>
</g>
<!-- AppRoutingModule&#45;&gt;AppModule -->
<g id="edge24" class="edge">
<title>AppRoutingModule&#45;&gt;AppModule</title>
<path fill="none" stroke="black" d="M336,-84.89C336,-107.93 336,-144.8 336,-144.8 336,-144.8 1928.13,-144.8 1928.13,-144.8"/>
<polygon fill="black" stroke="black" points="1928.13,-148.3 1938.13,-144.8 1928.13,-141.3 1928.13,-148.3"/>
</g>
<!-- LoadingScreenInterceptor -->
<g id="node27" class="node">
<title>LoadingScreenInterceptor</title>
<ellipse fill="#fdb462" stroke="black" cx="136" cy="-66.8" rx="111.7" ry="18"/>
<text text-anchor="middle" x="136" y="-62.6" font-family="Times,serif" font-size="14.00">LoadingScreenInterceptor</text>
</g>
<!-- LoadingScreenInterceptor&#45;&gt;AppModule -->
<g id="edge26" class="edge">
<title>LoadingScreenInterceptor&#45;&gt;AppModule</title>
<path fill="none" stroke="black" d="M136,-85.18C136,-109.08 136,-147.8 136,-147.8 136,-147.8 1928.02,-147.8 1928.02,-147.8"/>
<polygon fill="black" stroke="black" points="1928.02,-151.3 1938.02,-147.8 1928.02,-144.3 1928.02,-151.3"/>
</g>
</g>
</svg>
