<?xml version="1.0" encoding="UTF-8" standalone="no"?>
<!DOCTYPE svg PUBLIC "-//W3C//DTD SVG 1.1//EN"
 "http://www.w3.org/Graphics/SVG/1.1/DTD/svg11.dtd">
<!-- Generated by graphviz version 2.47.3 (20210619.1520)
 -->
<!-- Title: dependencies Pages: 1 -->
<svg width="4024pt" height="247pt"
 viewBox="0.00 0.00 4024.00 246.80" xmlns="http://www.w3.org/2000/svg" xmlns:xlink="http://www.w3.org/1999/xlink">
<g id="graph0" class="graph" transform="scale(1 1) rotate(0) translate(4 242.8)">
<title>dependencies</title>
<polygon fill="white" stroke="transparent" points="-4,4 -4,-242.8 4020,-242.8 4020,4 -4,4"/>
<text text-anchor="middle" x="2008" y="-8.2" font-family="sans-serif" font-size="14.00">dependencies</text>
<g id="clust1" class="cluster">
<title>cluster_AppModule</title>
<polygon fill="none" stroke="black" stroke-dasharray="1,5" points="8,-32.8 8,-230.8 4008,-230.8 4008,-32.8 8,-32.8"/>
</g>
<g id="clust29" class="cluster">
<title>cluster_AppModule_providers</title>
<polygon fill="none" stroke="black" points="3760,-40.8 3760,-92.8 4000,-92.8 4000,-40.8 3760,-40.8"/>
</g>
<g id="clust26" class="cluster">
<title>cluster_AppModule_imports</title>
<polygon fill="none" stroke="black" points="3608,-40.8 3608,-92.8 3752,-92.8 3752,-40.8 3608,-40.8"/>
</g>
<g id="clust28" class="cluster">
<title>cluster_AppModule_bootstrap</title>
<polygon fill="none" stroke="black" points="1869,-170.8 1869,-222.8 1993,-222.8 1993,-170.8 1869,-170.8"/>
</g>
<g id="clust2" class="cluster">
<title>cluster_AppModule_declarations</title>
<polygon fill="none" stroke="black" points="16,-40.8 16,-92.8 3600,-92.8 3600,-40.8 16,-40.8"/>
</g>
<!-- AccountComponent -->
<g id="node1" class="node">
<title>AccountComponent</title>
<polygon fill="#ffffb3" stroke="black" points="3592.26,-84.8 3463.74,-84.8 3463.74,-48.8 3592.26,-48.8 3592.26,-84.8"/>
<text text-anchor="middle" x="3528" y="-62.6" font-family="Times,serif" font-size="14.00">AccountComponent</text>
</g>
<!-- AppModule -->
<g id="node24" class="node">
<title>AppModule</title>
<polygon fill="#8dd3c7" stroke="black" points="1972.66,-149.8 1969.66,-153.8 1948.66,-153.8 1945.66,-149.8 1889.34,-149.8 1889.34,-113.8 1972.66,-113.8 1972.66,-149.8"/>
<text text-anchor="middle" x="1931" y="-127.6" font-family="Times,serif" font-size="14.00">AppModule</text>
</g>
<!-- AccountComponent&#45;&gt;AppModule -->
<g id="edge1" class="edge">
<title>AccountComponent&#45;&gt;AppModule</title>
<path fill="none" stroke="black" d="M3528,-84.96C3528,-107.15 3528,-141.8 3528,-141.8 3528,-141.8 1982.9,-141.8 1982.9,-141.8"/>
<polygon fill="black" stroke="black" points="1982.9,-138.3 1972.9,-141.8 1982.89,-145.3 1982.9,-138.3"/>
</g>
<!-- AccountLevelPipe -->
<g id="node2" class="node">
<title>AccountLevelPipe</title>
<polygon fill="#ffffb3" stroke="black" points="3446.19,-84.8 3325.81,-84.8 3325.81,-48.8 3446.19,-48.8 3446.19,-84.8"/>
<text text-anchor="middle" x="3386" y="-62.6" font-family="Times,serif" font-size="14.00">AccountLevelPipe</text>
</g>
<!-- AccountLevelPipe&#45;&gt;AppModule -->
<g id="edge2" class="edge">
<title>AccountLevelPipe&#45;&gt;AppModule</title>
<path fill="none" stroke="black" d="M3386,-84.97C3386,-106.3 3386,-138.8 3386,-138.8 3386,-138.8 1982.98,-138.8 1982.98,-138.8"/>
<polygon fill="black" stroke="black" points="1982.98,-135.3 1972.98,-138.8 1982.98,-142.3 1982.98,-135.3"/>
</g>
<!-- AddAnswerDialogComponent -->
<g id="node3" class="node">
<title>AddAnswerDialogComponent</title>
<polygon fill="#ffffb3" stroke="black" points="3307.57,-84.8 3120.43,-84.8 3120.43,-48.8 3307.57,-48.8 3307.57,-84.8"/>
<text text-anchor="middle" x="3214" y="-62.6" font-family="Times,serif" font-size="14.00">AddAnswerDialogComponent</text>
</g>
<!-- AddAnswerDialogComponent&#45;&gt;AppModule -->
<g id="edge3" class="edge">
<title>AddAnswerDialogComponent&#45;&gt;AppModule</title>
<path fill="none" stroke="black" d="M3214,-84.83C3214,-105.57 3214,-136.8 3214,-136.8 3214,-136.8 1982.96,-136.8 1982.96,-136.8"/>
<polygon fill="black" stroke="black" points="1982.96,-133.3 1972.96,-136.8 1982.96,-140.3 1982.96,-133.3"/>
</g>
<!-- AddQuestionDialogComponent -->
<g id="node4" class="node">
<title>AddQuestionDialogComponent</title>
<polygon fill="#ffffb3" stroke="black" points="3102.09,-84.8 2907.91,-84.8 2907.91,-48.8 3102.09,-48.8 3102.09,-84.8"/>
<text text-anchor="middle" x="3005" y="-62.6" font-family="Times,serif" font-size="14.00">AddQuestionDialogComponent</text>
</g>
<!-- AddQuestionDialogComponent&#45;&gt;AppModule -->
<g id="edge4" class="edge">
<title>AddQuestionDialogComponent&#45;&gt;AppModule</title>
<path fill="none" stroke="black" d="M3005,-85.11C3005,-104.95 3005,-133.8 3005,-133.8 3005,-133.8 1982.77,-133.8 1982.77,-133.8"/>
<polygon fill="black" stroke="black" points="1982.77,-130.3 1972.77,-133.8 1982.77,-137.3 1982.77,-130.3"/>
</g>
<!-- AdminComponent -->
<g id="node5" class="node">
<title>AdminComponent</title>
<polygon fill="#ffffb3" stroke="black" points="2890.22,-84.8 2769.78,-84.8 2769.78,-48.8 2890.22,-48.8 2890.22,-84.8"/>
<text text-anchor="middle" x="2830" y="-62.6" font-family="Times,serif" font-size="14.00">AdminComponent</text>
</g>
<!-- AdminComponent&#45;&gt;AppModule -->
<g id="edge5" class="edge">
<title>AdminComponent&#45;&gt;AppModule</title>
<path fill="none" stroke="black" d="M2830,-84.97C2830,-103.89 2830,-130.8 2830,-130.8 2830,-130.8 1982.86,-130.8 1982.86,-130.8"/>
<polygon fill="black" stroke="black" points="1982.86,-127.3 1972.86,-130.8 1982.86,-134.3 1982.86,-127.3"/>
</g>
<!-- AppComponent -->
<g id="node6" class="node">
<title>AppComponent</title>
<polygon fill="#ffffb3" stroke="black" points="2751.94,-84.8 2646.06,-84.8 2646.06,-48.8 2751.94,-48.8 2751.94,-84.8"/>
<text text-anchor="middle" x="2699" y="-62.6" font-family="Times,serif" font-size="14.00">AppComponent</text>
</g>
<!-- AppComponent&#45;&gt;AppModule -->
<g id="edge6" class="edge">
<title>AppComponent&#45;&gt;AppModule</title>
<path fill="none" stroke="black" d="M2699,-85.1C2699,-103.07 2699,-127.8 2699,-127.8 2699,-127.8 1982.84,-127.8 1982.84,-127.8"/>
<polygon fill="black" stroke="black" points="1982.84,-124.3 1972.84,-127.8 1982.84,-131.3 1982.84,-124.3"/>
</g>
<!-- AuthComponent -->
<g id="node7" class="node">
<title>AuthComponent</title>
<polygon fill="#ffffb3" stroke="black" points="2628.83,-84.8 2519.17,-84.8 2519.17,-48.8 2628.83,-48.8 2628.83,-84.8"/>
<text text-anchor="middle" x="2574" y="-62.6" font-family="Times,serif" font-size="14.00">AuthComponent</text>
</g>
<!-- AuthComponent&#45;&gt;AppModule -->
<g id="edge7" class="edge">
<title>AuthComponent&#45;&gt;AppModule</title>
<path fill="none" stroke="black" d="M2574,-84.82C2574,-102.17 2574,-125.8 2574,-125.8 2574,-125.8 1982.69,-125.8 1982.69,-125.8"/>
<polygon fill="black" stroke="black" points="1982.69,-122.3 1972.69,-125.8 1982.69,-129.3 1982.69,-122.3"/>
</g>
<!-- AutofocusDirective -->
<g id="node8" class="node">
<title>AutofocusDirective</title>
<polygon fill="#ffffb3" stroke="black" points="2501.4,-84.8 2374.6,-84.8 2374.6,-48.8 2501.4,-48.8 2501.4,-84.8"/>
<text text-anchor="middle" x="2438" y="-62.6" font-family="Times,serif" font-size="14.00">AutofocusDirective</text>
</g>
<!-- AutofocusDirective&#45;&gt;AppModule -->
<g id="edge8" class="edge">
<title>AutofocusDirective&#45;&gt;AppModule</title>
<path fill="none" stroke="black" d="M2438,-84.83C2438,-101.2 2438,-122.8 2438,-122.8 2438,-122.8 1982.92,-122.8 1982.92,-122.8"/>
<polygon fill="black" stroke="black" points="1982.92,-119.3 1972.92,-122.8 1982.92,-126.3 1982.92,-119.3"/>
</g>
<!-- CategoryDialogComponent -->
<g id="node9" class="node">
<title>CategoryDialogComponent</title>
<polygon fill="#ffffb3" stroke="black" points="2356.25,-84.8 2185.75,-84.8 2185.75,-48.8 2356.25,-48.8 2356.25,-84.8"/>
<text text-anchor="middle" x="2271" y="-62.6" font-family="Times,serif" font-size="14.00">CategoryDialogComponent</text>
</g>
<!-- CategoryDialogComponent&#45;&gt;AppModule -->
<g id="edge9" class="edge">
<title>CategoryDialogComponent&#45;&gt;AppModule</title>
<path fill="none" stroke="black" d="M2271,-85.04C2271,-100.37 2271,-119.8 2271,-119.8 2271,-119.8 1982.69,-119.8 1982.69,-119.8"/>
<polygon fill="black" stroke="black" points="1982.69,-116.3 1972.69,-119.8 1982.69,-123.3 1982.69,-116.3"/>
</g>
<!-- CourseDialogComponent -->
<g id="node10" class="node">
<title>CourseDialogComponent</title>
<polygon fill="#ffffb3" stroke="black" points="2167.59,-84.8 2008.41,-84.8 2008.41,-48.8 2167.59,-48.8 2167.59,-84.8"/>
<text text-anchor="middle" x="2088" y="-62.6" font-family="Times,serif" font-size="14.00">CourseDialogComponent</text>
</g>
<!-- CourseDialogComponent&#45;&gt;AppModule -->
<g id="edge10" class="edge">
<title>CourseDialogComponent&#45;&gt;AppModule</title>
<path fill="none" stroke="black" d="M2088,-84.85C2088,-99.17 2088,-116.8 2088,-116.8 2088,-116.8 1982.66,-116.8 1982.66,-116.8"/>
<polygon fill="black" stroke="black" points="1982.66,-113.3 1972.66,-116.8 1982.66,-120.3 1982.66,-113.3"/>
</g>
<!-- DialogComponent -->
<g id="node11" class="node">
<title>DialogComponent</title>
<polygon fill="#ffffb3" stroke="black" points="1990.94,-84.8 1871.06,-84.8 1871.06,-48.8 1990.94,-48.8 1990.94,-84.8"/>
<text text-anchor="middle" x="1931" y="-62.6" font-family="Times,serif" font-size="14.00">DialogComponent</text>
</g>
<!-- DialogComponent&#45;&gt;AppModule -->
<g id="edge11" class="edge">
<title>DialogComponent&#45;&gt;AppModule</title>
<path fill="none" stroke="black" d="M1931,-84.91C1931,-84.91 1931,-103.79 1931,-103.79"/>
<polygon fill="black" stroke="black" points="1927.5,-103.79 1931,-113.79 1934.5,-103.79 1927.5,-103.79"/>
</g>
<!-- EditAnswerDialogComponent -->
<g id="node12" class="node">
<title>EditAnswerDialogComponent</title>
<polygon fill="#ffffb3" stroke="black" points="1853.3,-84.8 1666.7,-84.8 1666.7,-48.8 1853.3,-48.8 1853.3,-84.8"/>
<text text-anchor="middle" x="1760" y="-62.6" font-family="Times,serif" font-size="14.00">EditAnswerDialogComponent</text>
</g>
<!-- EditAnswerDialogComponent&#45;&gt;AppModule -->
<g id="edge12" class="edge">
<title>EditAnswerDialogComponent&#45;&gt;AppModule</title>
<path fill="none" stroke="black" d="M1760,-84.85C1760,-99.17 1760,-116.8 1760,-116.8 1760,-116.8 1879.17,-116.8 1879.17,-116.8"/>
<polygon fill="black" stroke="black" points="1879.17,-120.3 1889.17,-116.8 1879.17,-113.3 1879.17,-120.3"/>
</g>
<!-- ErrorPageComponent -->
<g id="node13" class="node">
<title>ErrorPageComponent</title>
<polygon fill="#ffffb3" stroke="black" points="1649.08,-84.8 1510.92,-84.8 1510.92,-48.8 1649.08,-48.8 1649.08,-84.8"/>
<text text-anchor="middle" x="1580" y="-62.6" font-family="Times,serif" font-size="14.00">ErrorPageComponent</text>
</g>
<!-- ErrorPageComponent&#45;&gt;AppModule -->
<g id="edge13" class="edge">
<title>ErrorPageComponent&#45;&gt;AppModule</title>
<path fill="none" stroke="black" d="M1580,-85.04C1580,-100.37 1580,-119.8 1580,-119.8 1580,-119.8 1879.01,-119.8 1879.01,-119.8"/>
<polygon fill="black" stroke="black" points="1879.01,-123.3 1889.01,-119.8 1879.01,-116.3 1879.01,-123.3"/>
</g>
<!-- FaqComponent -->
<g id="node14" class="node">
<title>FaqComponent</title>
<polygon fill="#ffffb3" stroke="black" points="1493.33,-84.8 1390.67,-84.8 1390.67,-48.8 1493.33,-48.8 1493.33,-84.8"/>
<text text-anchor="middle" x="1442" y="-62.6" font-family="Times,serif" font-size="14.00">FaqComponent</text>
</g>
<!-- FaqComponent&#45;&gt;AppModule -->
<g id="edge14" class="edge">
<title>FaqComponent&#45;&gt;AppModule</title>
<path fill="none" stroke="black" d="M1442,-84.83C1442,-101.2 1442,-122.8 1442,-122.8 1442,-122.8 1879.31,-122.8 1879.31,-122.8"/>
<polygon fill="black" stroke="black" points="1879.31,-126.3 1889.31,-122.8 1879.31,-119.3 1879.31,-126.3"/>
</g>
<!-- GameComponent -->
<g id="node15" class="node">
<title>GameComponent</title>
<polygon fill="#ffffb3" stroke="black" points="1372.26,-84.8 1257.74,-84.8 1257.74,-48.8 1372.26,-48.8 1372.26,-84.8"/>
<text text-anchor="middle" x="1315" y="-62.6" font-family="Times,serif" font-size="14.00">GameComponent</text>
</g>
<!-- GameComponent&#45;&gt;AppModule -->
<g id="edge15" class="edge">
<title>GameComponent&#45;&gt;AppModule</title>
<path fill="none" stroke="black" d="M1315,-84.82C1315,-102.17 1315,-125.8 1315,-125.8 1315,-125.8 1879.14,-125.8 1879.14,-125.8"/>
<polygon fill="black" stroke="black" points="1879.14,-129.3 1889.14,-125.8 1879.14,-122.3 1879.14,-129.3"/>
</g>
<!-- HeaderComponent -->
<g id="node16" class="node">
<title>HeaderComponent</title>
<polygon fill="#ffffb3" stroke="black" points="1239.74,-84.8 1118.26,-84.8 1118.26,-48.8 1239.74,-48.8 1239.74,-84.8"/>
<text text-anchor="middle" x="1179" y="-62.6" font-family="Times,serif" font-size="14.00">HeaderComponent</text>
</g>
<!-- HeaderComponent&#45;&gt;AppModule -->
<g id="edge16" class="edge">
<title>HeaderComponent&#45;&gt;AppModule</title>
<path fill="none" stroke="black" d="M1179,-85.1C1179,-103.07 1179,-127.8 1179,-127.8 1179,-127.8 1879.23,-127.8 1879.23,-127.8"/>
<polygon fill="black" stroke="black" points="1879.23,-131.3 1889.23,-127.8 1879.23,-124.3 1879.23,-131.3"/>
</g>
<!-- HomeComponent -->
<g id="node17" class="node">
<title>HomeComponent</title>
<polygon fill="#ffffb3" stroke="black" points="1099.55,-84.8 984.45,-84.8 984.45,-48.8 1099.55,-48.8 1099.55,-84.8"/>
<text text-anchor="middle" x="1042" y="-62.6" font-family="Times,serif" font-size="14.00">HomeComponent</text>
</g>
<!-- HomeComponent&#45;&gt;AppModule -->
<g id="edge17" class="edge">
<title>HomeComponent&#45;&gt;AppModule</title>
<path fill="none" stroke="black" d="M1042,-84.97C1042,-103.89 1042,-130.8 1042,-130.8 1042,-130.8 1879.31,-130.8 1879.31,-130.8"/>
<polygon fill="black" stroke="black" points="1879.31,-134.3 1889.31,-130.8 1879.31,-127.3 1879.31,-134.3"/>
</g>
<!-- LoadingScreenComponent -->
<g id="node18" class="node">
<title>LoadingScreenComponent</title>
<polygon fill="#ffffb3" stroke="black" points="966.08,-84.8 799.92,-84.8 799.92,-48.8 966.08,-48.8 966.08,-84.8"/>
<text text-anchor="middle" x="883" y="-62.6" font-family="Times,serif" font-size="14.00">LoadingScreenComponent</text>
</g>
<!-- LoadingScreenComponent&#45;&gt;AppModule -->
<g id="edge18" class="edge">
<title>LoadingScreenComponent&#45;&gt;AppModule</title>
<path fill="none" stroke="black" d="M883,-85.11C883,-104.95 883,-133.8 883,-133.8 883,-133.8 1879.27,-133.8 1879.27,-133.8"/>
<polygon fill="black" stroke="black" points="1879.27,-137.3 1889.27,-133.8 1879.27,-130.3 1879.27,-137.3"/>
</g>
<!-- LobbyComponent -->
<g id="node19" class="node">
<title>LobbyComponent</title>
<polygon fill="#ffffb3" stroke="black" points="781.89,-84.8 664.11,-84.8 664.11,-48.8 781.89,-48.8 781.89,-84.8"/>
<text text-anchor="middle" x="723" y="-62.6" font-family="Times,serif" font-size="14.00">LobbyComponent</text>
</g>
<!-- LobbyComponent&#45;&gt;AppModule -->
<g id="edge19" class="edge">
<title>LobbyComponent&#45;&gt;AppModule</title>
<path fill="none" stroke="black" d="M723,-84.83C723,-105.57 723,-136.8 723,-136.8 723,-136.8 1879.07,-136.8 1879.07,-136.8"/>
<polygon fill="black" stroke="black" points="1879.07,-140.3 1889.07,-136.8 1879.07,-133.3 1879.07,-140.3"/>
</g>
<!-- QuestionDialogComponent -->
<g id="node20" class="node">
<title>QuestionDialogComponent</title>
<polygon fill="#ffffb3" stroke="black" points="645.98,-84.8 476.02,-84.8 476.02,-48.8 645.98,-48.8 645.98,-84.8"/>
<text text-anchor="middle" x="561" y="-62.6" font-family="Times,serif" font-size="14.00">QuestionDialogComponent</text>
</g>
<!-- QuestionDialogComponent&#45;&gt;AppModule -->
<g id="edge20" class="edge">
<title>QuestionDialogComponent&#45;&gt;AppModule</title>
<path fill="none" stroke="black" d="M561,-84.97C561,-106.3 561,-138.8 561,-138.8 561,-138.8 1879.25,-138.8 1879.25,-138.8"/>
<polygon fill="black" stroke="black" points="1879.25,-142.3 1889.25,-138.8 1879.25,-135.3 1879.25,-142.3"/>
</g>
<!-- QuestionsComponent -->
<g id="node21" class="node">
<title>QuestionsComponent</title>
<polygon fill="#ffffb3" stroke="black" points="457.82,-84.8 320.18,-84.8 320.18,-48.8 457.82,-48.8 457.82,-84.8"/>
<text text-anchor="middle" x="389" y="-62.6" font-family="Times,serif" font-size="14.00">QuestionsComponent</text>
</g>
<!-- QuestionsComponent&#45;&gt;AppModule -->
<g id="edge21" class="edge">
<title>QuestionsComponent&#45;&gt;AppModule</title>
<path fill="none" stroke="black" d="M389,-84.96C389,-107.15 389,-141.8 389,-141.8 389,-141.8 1878.96,-141.8 1878.96,-141.8"/>
<polygon fill="black" stroke="black" points="1878.96,-145.3 1888.96,-141.8 1878.96,-138.3 1878.96,-145.3"/>
</g>
<!-- RankingComponent -->
<g id="node22" class="node">
<title>RankingComponent</title>
<polygon fill="#ffffb3" stroke="black" points="302.27,-84.8 173.73,-84.8 173.73,-48.8 302.27,-48.8 302.27,-84.8"/>
<text text-anchor="middle" x="238" y="-62.6" font-family="Times,serif" font-size="14.00">RankingComponent</text>
</g>
<!-- RankingComponent&#45;&gt;AppModule -->
<g id="edge22" class="edge">
<title>RankingComponent&#45;&gt;AppModule</title>
<path fill="none" stroke="black" d="M238,-84.89C238,-107.93 238,-144.8 238,-144.8 238,-144.8 1879.15,-144.8 1879.15,-144.8"/>
<polygon fill="black" stroke="black" points="1879.15,-148.3 1889.15,-144.8 1879.15,-141.3 1879.15,-148.3"/>
</g>
<!-- UserEditComponent -->
<g id="node23" class="node">
<title>UserEditComponent</title>
<polygon fill="#ffffb3" stroke="black" points="155.59,-84.8 24.41,-84.8 24.41,-48.8 155.59,-48.8 155.59,-84.8"/>
<text text-anchor="middle" x="90" y="-62.6" font-family="Times,serif" font-size="14.00">UserEditComponent</text>
</g>
<!-- UserEditComponent&#45;&gt;AppModule -->
<g id="edge23" class="edge">
<title>UserEditComponent&#45;&gt;AppModule</title>
<path fill="none" stroke="black" d="M90,-85.18C90,-109.08 90,-147.8 90,-147.8 90,-147.8 1879.09,-147.8 1879.09,-147.8"/>
<polygon fill="black" stroke="black" points="1879.09,-151.3 1889.09,-147.8 1879.09,-144.3 1879.09,-151.3"/>
</g>
<!-- AppComponent  -->
<g id="node26" class="node">
<title>AppComponent </title>
<polygon fill="#80b1d3" stroke="black" points="1985.44,-214.8 1876.56,-214.8 1876.56,-178.8 1985.44,-178.8 1985.44,-214.8"/>
<text text-anchor="middle" x="1931" y="-192.6" font-family="Times,serif" font-size="14.00">AppComponent </text>
</g>
<!-- AppModule&#45;&gt;AppComponent  -->
<g id="edge25" class="edge">
<title>AppModule&#45;&gt;AppComponent </title>
<path fill="none" stroke="black" stroke-dasharray="1,5" d="M1931,-149.91C1931,-149.91 1931,-168.79 1931,-168.79"/>
<polygon fill="black" stroke="black" points="1927.5,-168.79 1931,-178.79 1934.5,-168.79 1927.5,-168.79"/>
</g>
<!-- AppRoutingModule -->
<g id="node25" class="node">
<title>AppRoutingModule</title>
<polygon fill="#8dd3c7" stroke="black" points="3744.27,-84.8 3741.27,-88.8 3720.27,-88.8 3717.27,-84.8 3615.73,-84.8 3615.73,-48.8 3744.27,-48.8 3744.27,-84.8"/>
<text text-anchor="middle" x="3680" y="-62.6" font-family="Times,serif" font-size="14.00">AppRoutingModule</text>
</g>
<!-- AppRoutingModule&#45;&gt;AppModule -->
<g id="edge24" class="edge">
<title>AppRoutingModule&#45;&gt;AppModule</title>
<path fill="none" stroke="black" d="M3680,-84.89C3680,-107.93 3680,-144.8 3680,-144.8 3680,-144.8 1982.94,-144.8 1982.94,-144.8"/>
<polygon fill="black" stroke="black" points="1982.94,-141.3 1972.94,-144.8 1982.94,-148.3 1982.94,-141.3"/>
</g>
<!-- LoadingScreenInterceptor -->
<g id="node27" class="node">
<title>LoadingScreenInterceptor</title>
<ellipse fill="#fdb462" stroke="black" cx="3880" cy="-66.8" rx="111.7" ry="18"/>
<text text-anchor="middle" x="3880" y="-62.6" font-family="Times,serif" font-size="14.00">LoadingScreenInterceptor</text>
</g>
<!-- LoadingScreenInterceptor&#45;&gt;AppModule -->
<g id="edge26" class="edge">
<title>LoadingScreenInterceptor&#45;&gt;AppModule</title>
<path fill="none" stroke="black" d="M3880,-85.18C3880,-109.08 3880,-147.8 3880,-147.8 3880,-147.8 1983.06,-147.8 1983.06,-147.8"/>
<polygon fill="black" stroke="black" points="1983.06,-144.3 1973.06,-147.8 1983.06,-151.3 1983.06,-144.3"/>
</g>
</g>
</svg>
